HIERARCHY
ROOT Hips
{
	OFFSET 0.000000 0.000000 0.000000 
	CHANNELS 6 Xposition Yposition Zposition Zrotation Yrotation Xrotation
	JOINT LeftUpLeg
	{
		OFFSET 1.363060 -1.794630 0.839290 
		CHANNELS 3 Zrotation Yrotation Xrotation
		JOINT LeftLeg
		{
			OFFSET 2.448110 -6.726130 0.000000 
			CHANNELS 3 Zrotation Yrotation Xrotation
			JOINT LeftFoot
			{
				OFFSET 2.562200 -7.039590 0.000000 
				CHANNELS 3 Zrotation Yrotation Xrotation
				JOINT LeftToeBase
				{
					OFFSET 0.157640 -0.433110 2.322550 
					CHANNELS 3 Zrotation Yrotation Xrotation
					End Site
					{
						OFFSET 0.000000 0.000000 0.000000 
					}
				}
			}
		}
	}
	JOINT RightUpLeg
	{
		OFFSET -1.305520 -1.794630 0.839290 
		CHANNELS 3 Zrotation Yrotation Xrotation
		JOINT RightLeg
		{
			OFFSET -2.542530 -6.985550 0.000000 
			CHANNELS 3 Zrotation Yrotation Xrotation
			JOINT RightFoot
			{
				OFFSET -2.568260 -7.056230 0.000000 
				CHANNELS 3 Zrotation Yrotation Xrotation
				JOINT RightToeBase
				{
					OFFSET -0.164730 -0.452590 2.363150 
					CHANNELS 3 Zrotation Yrotation Xrotation
					End Site
					{
						OFFSET 0.000000 0.000000 0.000000 
					}
				}
			}
		}
	}
	JOINT Spine
	{
		OFFSET 0.028270 2.035590 -0.193380 
		CHANNELS 3 Zrotation Yrotation Xrotation
		JOINT Spine1
		{
			OFFSET 0.056720 2.048850 -0.042750 
			CHANNELS 3 Zrotation Yrotation Xrotation
			JOINT Neck1
			{
				OFFSET -0.054170 1.746240 0.172020 
				CHANNELS 3 Zrotation Yrotation Xrotation
				JOINT Head
				{
					OFFSET 0.104070 1.761360 -0.123970 
					CHANNELS 3 Zrotation Yrotation Xrotation
					End Site
					{
						OFFSET 0.000000 0.000000 0.000000 
					}
				}
			}
			JOINT LeftArm
			{
				OFFSET 3.362410 1.200890 -0.311210 
				CHANNELS 3 Zrotation Yrotation Xrotation
				JOINT LeftForeArm
				{
					OFFSET 4.983000 -0.000000 -0.000000 
					CHANNELS 3 Zrotation Yrotation Xrotation
					JOINT LeftHand
					{
						OFFSET 3.483560 -0.000000 -0.000000 
						CHANNELS 3 Zrotation Yrotation Xrotation
						JOINT LeftHandIndex1
						{
							OFFSET 0.715260 -0.000000 -0.000000 
							CHANNELS 3 Zrotation Yrotation Xrotation
							End Site
							{
								OFFSET 0.000000 0.000000 0.000000 
							}
						}
					}
				}
			}
			JOINT RightArm
			{
				OFFSET -3.136600 1.374050 -0.404650 
				CHANNELS 3 Zrotation Yrotation Xrotation
				JOINT RightForeArm
				{
					OFFSET -5.241900 -0.000000 -0.000000 
					CHANNELS 3 Zrotation Yrotation Xrotation
					JOINT RightHand
					{
						OFFSET -3.444170 -0.000000 -0.000000 
						CHANNELS 3 Zrotation Yrotation Xrotation
						JOINT RightHandIndex1
						{
							OFFSET -0.622530 -0.000000 -0.000000 
							CHANNELS 3 Zrotation Yrotation Xrotation
							End Site
							{
								OFFSET 0.000000 0.000000 0.000000 
							}
						}
					}
				}
			}
		}
	}
}
MOTION
Frames: 10
Frame Time: 0.041667
0.123194 18.041064 9.776112 -7.337214 -5.183239 3.288285 -3.856364 -11.329322 -28.860197 -0.958304 6.607598 18.319598 -1.924328 9.858091 12.140191 0.173800 -2.685900 -7.405500 27.815924 9.875586 1.782742 0.001071 -4.348394 19.633038 0.677247 -3.331606 0.370073 -0.097700 -2.015700 5.548900 4.234635 3.780778 2.261476 -2.605154 1.696216 -7.571046 2.770304 -4.958022 20.075385 -0.505900 -2.004900 9.911600 -82.409064 8.089537 21.741097 10.530135 -18.405127 -1.790854 -0.701517 -0.925723 -2.703487 -7.125000 0.000000 0.000000 71.215123 9.451396 20.957816 -12.509023 24.952707 -3.337360 1.129028 -0.476005 0.207786 7.125000 0.000000 0.000000 
0.133937 18.021585 9.961857 -7.524565 -5.403537 3.383703 -3.165326 -11.868491 -28.277977 -1.318709 5.719013 15.822031 -2.036585 10.249971 12.141427 0.174300 -2.689400 -7.415200 27.820171 9.668968 2.328846 0.036510 -4.263881 19.416249 0.538377 -2.922062 0.515247 -0.092700 -1.964000 5.406100 4.242661 3.928883 2.319469 -2.716557 1.772312 -7.460236 2.891661 -4.916940 19.963785 -0.450300 -1.981900 9.893900 -82.465550 7.950481 21.344427 10.226524 -17.913667 -1.690603 -0.714813 -0.874354 -2.383942 -7.125000 0.000000 0.000000 71.226270 9.823620 20.991034 -12.766753 25.301406 -3.467139 1.112354 -0.432061 -0.261917 7.125000 0.000000 0.000000 
0.149700 18.010240 10.153426 -7.586911 -5.624797 3.545549 -2.550009 -12.666749 -27.689008 -1.609797 4.858210 13.463645 -2.226016 10.843586 12.109666 0.209200 -2.944700 -8.124700 27.632153 9.558715 2.762290 0.056013 -4.231103 19.328393 0.369433 -2.428261 0.701438 -0.072900 -1.741400 4.791400 4.212537 4.048567 2.361858 -2.812471 1.839433 -7.275144 3.015155 -4.948570 19.665291 -0.402700 -1.998700 9.774000 -82.512277 7.880578 21.207404 9.991775 -17.552338 -1.609769 -0.726325 -0.905643 -2.435119 -7.125000 0.000000 0.000000 71.197230 9.994118 21.034389 -13.067318 25.712641 -3.616188 1.101944 -0.392127 -0.676683 7.125000 0.000000 0.000000 
0.167271 17.991063 10.346299 -7.484250 -5.711047 3.722346 -2.205620 -13.419566 -27.247458 -1.842526 4.085557 11.413287 -2.356471 11.229650 12.027041 0.211600 -2.961700 -8.172100 27.278398 9.452190 3.182932 0.070286 -4.221042 19.289785 0.193687 -1.938101 0.670632 -0.027500 -1.071400 2.945300 4.158011 4.042753 2.315504 -2.795843 1.844812 -7.175769 3.102551 -4.974134 19.628281 -0.370000 -2.005000 9.744900 -82.640328 8.148548 20.925793 9.891322 -17.402206 -1.573268 -0.725898 -0.948275 -2.353828 -7.125000 0.000000 0.000000 71.226696 10.209027 20.862772 -13.055235 25.681870 -3.605881 1.105804 -0.403986 -0.508300 7.125000 0.000000 0.000000 
0.182733 17.968874 10.532647 -7.191213 -5.778817 3.795569 -2.288952 -13.747352 -26.923305 -2.038423 3.423379 9.736563 -2.365223 11.198210 11.780487 0.199300 -2.874500 -7.929500 26.791523 9.429276 3.628890 0.066784 -4.257576 19.358006 0.086323 -1.648370 0.657435 -0.011500 -0.691300 1.899800 4.058238 4.078482 2.238913 -2.687163 1.867496 -7.256394 3.116568 -4.981709 19.812767 -0.367700 -1.999400 9.829700 -82.737452 8.396642 20.584500 9.696570 -17.105984 -1.509724 -0.755661 -0.948502 -1.649889 -7.125000 0.000000 0.000000 71.143462 10.521457 20.743634 -12.909252 25.468217 -3.533668 1.110213 -0.416112 -0.516015 7.125000 0.000000 0.000000 
0.191368 17.944577 10.723412 -7.157546 -5.991772 3.739520 -2.347955 -13.465404 -26.608297 -2.183191 2.921363 8.459737 -2.279552 10.868222 11.401757 0.207900 -2.935500 -8.099300 26.710495 9.507037 4.223079 0.017216 -4.350827 19.621938 0.090765 -1.661121 0.651222 -0.001700 -0.267800 0.735700 4.077044 4.143256 2.241598 -2.579709 1.905794 -7.300312 3.051558 -4.973727 19.980717 -0.386600 -1.998000 9.891300 -82.835667 8.451345 19.660849 9.221146 -16.331768 -1.364342 -0.799599 -0.859423 -0.337409 -7.125000 0.000000 0.000000 71.142021 10.759125 20.589895 -12.828751 25.347403 -3.498209 1.105144 -0.416422 -0.313363 7.125000 0.000000 0.000000 
0.202914 17.917066 10.908454 -7.165788 -6.122899 3.798818 -2.449183 -13.169566 -26.451415 -2.272671 2.586755 7.599026 -2.258943 10.754594 11.103144 0.275200 -3.374300 -9.322700 26.672217 9.595378 4.594616 -0.058896 -4.493759 20.051043 0.032129 -1.459107 0.967451 -0.005100 -0.463100 1.272600 4.106229 4.162103 2.214385 -2.496310 1.919441 -7.330150 2.969097 -4.997126 19.991693 -0.435400 -2.007900 9.871000 -82.913758 8.574540 19.043470 8.916771 -15.760393 -1.284607 -0.789647 -0.652648 0.314400 -7.125000 0.000000 0.000000 71.127641 10.846434 20.692620 -12.884338 25.422673 -3.522618 1.105149 -0.418834 -0.216090 7.125000 0.000000 0.000000 
0.218577 17.888652 11.085163 -7.066355 -5.937617 3.960701 -2.881360 -12.753164 -26.623488 -2.333974 2.432821 7.239823 -2.077211 10.284938 11.334552 0.321300 -3.643500 -10.075800 26.533095 9.611172 4.713844 -0.153575 -4.674164 20.602023 -0.094341 -1.092326 0.962400 -0.002700 -0.336500 0.924500 4.067513 4.014586 2.093009 -2.444310 1.839004 -7.514319 2.986593 -5.038110 20.305862 -0.430600 -2.015900 10.028200 -82.973924 8.846789 19.021417 8.937234 -15.877135 -1.276667 -0.809512 -0.863924 0.272751 -7.125000 0.000000 0.000000 71.222441 10.951511 20.730596 -12.964544 25.526362 -3.556861 1.109103 -0.413628 -0.114425 7.125000 0.000000 0.000000 
0.237252 17.866463 11.274523 -6.909340 -5.835748 4.025012 -3.523338 -12.141669 -26.861926 -2.357500 2.499372 7.472566 -1.802136 9.636803 12.069467 0.280700 -3.407800 -9.416200 26.333704 9.660900 4.921597 -0.265302 -4.884003 21.234825 -0.203617 -0.797364 0.725559 -0.007000 0.539200 -1.481600 3.985920 3.977336 2.013158 -2.449074 1.816175 -7.622300 3.289747 -5.118524 20.455648 -0.298100 -2.032700 10.097200 -82.994798 8.854954 18.841923 8.754072 -15.644271 -1.211816 -0.818579 -1.078695 0.331416 -7.125000 0.000000 0.000000 71.302296 10.798647 20.510710 -13.135019 25.765859 -3.640308 1.103342 -0.417595 -0.155376 7.125000 0.000000 0.000000 
0.259842 17.849094 11.471714 -6.744606 -5.913375 4.056798 -4.221735 -11.490022 -27.227881 -2.320958 2.823959 8.354201 -1.562791 9.143215 13.053566 0.281400 -3.411500 -9.426500 26.085558 9.761919 5.211795 -0.375811 -5.087520 21.854921 -0.286662 -0.505953 1.197146 -0.000400 0.124200 -0.341200 3.812490 4.081530 1.946406 -2.602210 1.862843 -7.675425 3.467352 -5.154449 20.310989 -0.245300 -2.032100 10.024100 -82.871053 8.995529 18.888803 8.559756 -15.351411 -1.154625 -0.836529 -1.107684 0.085285 -7.125000 0.000000 0.000000 71.423930 10.732008 20.036134 -13.166674 25.806424 -3.658500 1.099092 -0.424828 -0.086766 7.125000 0.000000 0.000000 
